<svg width="48" height="30" viewBox="0 0 48 30" fill="none" xmlns="http://www.w3.org/2000/svg">
<path opacity="0.07" d="M44.2105 0H3.78947C1.64211 0 0 1.625 0 3.75V26.25C0 28.375 1.76842 30 3.78947 30H44.2105C46.3579 30 48 28.375 48 26.25V3.75C48 1.625 46.2316 0 44.2105 0Z" fill="black"/>
<path d="M44.2105 1.25C45.6 1.25 46.7369 2.375 46.7369 3.75V26.25C46.7369 27.625 45.6 28.75 44.2105 28.75H3.7895C2.40003 28.75 1.26318 27.625 1.26318 26.25V3.75C1.26318 2.375 2.40003 1.25 3.7895 1.25H44.2105Z" fill="#006FCF"/>
<path d="M11.3319 12.835L12.3096 15.18H10.3618L11.3319 12.835ZM31.6372 12.9325H27.8767V13.9663H31.5765V15.515H27.8843V16.6675H31.6447V17.5912L34.2683 14.785L31.6447 11.86L31.6372 12.9325ZM13.8734 10.0075H18.9197L20.0401 12.4262L21.0784 10H34.1774L35.5391 11.4875L36.9475 10H42.9639L38.5188 14.815L42.9184 19.6H36.8123L35.4506 18.1125L34.0296 19.6H12.6696L12.0456 18.1125H10.6182L9.99294 19.6H5.05273L9.20347 10H13.5361L13.8734 10.0075ZM24.8161 11.355H21.9879L20.0932 15.775L18.0405 11.355H15.2338V17.3675L12.6317 11.355H10.1142L7.10537 18.245H9.06958L9.69358 16.7575H12.9727L13.5967 18.245H17.0325V13.3263L19.2443 18.2525H20.7475L22.9454 13.3413V18.2537H24.7871L24.8174 11.3538L24.8161 11.355ZM36.614 14.815L39.8111 11.355H37.5096L35.4873 13.5125L33.5319 11.355H26.0868V18.2525H33.4258L35.4645 16.08L37.4199 18.2525H39.7883L36.6153 14.815H36.614Z" fill="white"/>
</svg>
