<svg width="25" height="25" viewBox="0 0 25 25" fill="none" xmlns="http://www.w3.org/2000/svg">
<path d="M20.2148 0.488281H4.78516C2.41206 0.488281 0.488281 2.41206 0.488281 4.78516V20.2148C0.488281 22.5879 2.41206 24.5117 4.78516 24.5117H12.5C12.5 24.5055 12.5 19.3908 12.5 14.917H9.61914V11.4499H12.5V8.91045C12.5 7.28647 13.2546 4.76309 16.6116 4.76309H20.2501V8.16445C20.2501 8.16445 17.8306 8.16445 17.4795 8.16445C17.1065 8.16445 16.6015 8.33975 16.6015 9.10762V11.428H20.272L19.9209 14.917H16.6016C16.6016 19.347 16.6016 24.5055 16.6016 24.5117H20.2148C22.5879 24.5117 24.5117 22.5879 24.5117 20.2148V4.78516C24.5117 2.41206 22.5879 0.488281 20.2148 0.488281Z" fill="#6E87F5"/>
<path d="M12.5 19.311C12.2303 19.311 12.0117 19.0924 12.0117 18.8228V18.8188C12.0117 18.8182 12.0117 18.8175 12.0117 18.8169C12.0117 18.8163 12.0117 18.8156 12.0117 18.8149C12.0117 18.5453 12.2303 18.3267 12.5 18.3267C12.7697 18.3267 12.9883 18.5453 12.9883 18.8149C12.9883 18.8156 12.9883 18.8163 12.9883 18.8169C12.9883 18.8175 12.9883 18.8182 12.9883 18.8188C12.9883 18.8195 12.9883 18.8201 12.9883 18.8208C12.9883 18.8215 12.9883 18.8221 12.9883 18.8228C12.9883 19.0924 12.7697 19.311 12.5 19.311Z" fill="black"/>
<path d="M20.2148 25H16.6016C16.3319 25 16.1133 24.7814 16.1133 24.5117V14.917C16.1133 14.6473 16.3319 14.4287 16.6016 14.4287H19.4793L19.7322 11.9163H16.6016C16.3319 11.9163 16.1133 11.6977 16.1133 11.428V9.10762C16.1133 8.05107 16.8493 7.67617 17.4795 7.67617H19.7619V5.25137H16.6116C13.3413 5.25137 12.9882 7.81025 12.9882 8.91045V11.4499C12.9882 11.7195 12.7696 11.9381 12.5 11.9381H10.1074V14.4287H12.5C12.7696 14.4287 12.9882 14.6473 12.9882 14.917V16.7969C12.9882 17.0666 12.7696 17.2852 12.5 17.2852C12.2303 17.2852 12.0117 17.0666 12.0117 16.7969V15.4053H9.61909C9.34941 15.4053 9.13081 15.1867 9.13081 14.917V11.4499C9.13081 11.1802 9.34941 10.9616 9.61909 10.9616H12.0117V8.9105C12.0117 8.25718 12.1274 7.00249 12.9024 5.94009C13.4566 5.18042 14.55 4.27485 16.6116 4.27485H20.2501C20.5198 4.27485 20.7384 4.49346 20.7384 4.76313V8.1645C20.7384 8.43418 20.5198 8.65278 20.2501 8.65278H17.4795C17.1955 8.65278 17.0898 8.77607 17.0898 9.10767V10.9397H20.2721C20.4101 10.9397 20.5416 10.9981 20.6342 11.1005C20.7268 11.2028 20.7717 11.3396 20.7579 11.4769L20.4068 14.9659C20.3817 15.2154 20.1717 15.4053 19.9209 15.4053H17.0898V24.0234H20.2148C22.3149 24.0234 24.0234 22.3149 24.0234 20.2148V4.78516C24.0234 2.68511 22.3149 0.976562 20.2148 0.976562H4.78516C2.68511 0.976562 0.976562 2.68511 0.976562 4.78516V20.2148C0.976562 22.3149 2.68511 24.0234 4.78516 24.0234H12.0117V20.7275C12.0117 20.4579 12.2303 20.2393 12.5 20.2393C12.7697 20.2393 12.9883 20.4579 12.9883 20.7275V24.5117C12.9883 24.7814 12.7697 25 12.5 25H4.78516C2.14658 25 0 22.8534 0 20.2148V4.78516C0 2.14658 2.14658 0 4.78516 0H20.2148C22.8534 0 25 2.14658 25 4.78516V20.2148C25 22.8534 22.8534 25 20.2148 25Z" fill="black"/>
<path d="M2.83203 10.0586C2.56235 10.0586 2.34375 9.83999 2.34375 9.57031V5.49316C2.34375 5.22349 2.56235 5.00488 2.83203 5.00488C3.10171 5.00488 3.32031 5.22349 3.32031 5.49316V9.57031C3.32031 9.83999 3.10171 10.0586 2.83203 10.0586Z" fill="black"/>
<path d="M2.83203 12.1825C2.56235 12.1825 2.34375 11.9639 2.34375 11.6942V11.6885C2.34375 11.4188 2.56235 11.2002 2.83203 11.2002C3.10171 11.2002 3.32031 11.4188 3.32031 11.6885V11.6942C3.32031 11.9639 3.10171 12.1825 2.83203 12.1825Z" fill="black"/>
</svg>
