<svg width="48" height="30" viewBox="0 0 48 30" fill="none" xmlns="http://www.w3.org/2000/svg">
<path opacity="0.07" d="M44.2105 0H3.78947C1.64211 0 0 1.625 0 3.75V26.25C0 28.375 1.76842 30 3.78947 30H44.2105C46.3579 30 48 28.375 48 26.25V3.75C48 1.625 46.2316 0 44.2105 0Z" fill="black"/>
<path d="M44.2105 1.25C45.6 1.25 46.7369 2.375 46.7369 3.75V26.25C46.7369 27.625 45.6 28.75 44.2105 28.75H3.7895C2.40003 28.75 1.26318 27.625 1.26318 26.25V3.75C1.26318 2.375 2.40003 1.25 3.7895 1.25H44.2105Z" fill="white"/>
<path d="M18.9476 23.75C23.8309 23.75 27.7897 19.8325 27.7897 15C27.7897 10.1675 23.8309 6.25 18.9476 6.25C14.0642 6.25 10.1055 10.1675 10.1055 15C10.1055 19.8325 14.0642 23.75 18.9476 23.75Z" fill="#EB001B"/>
<path d="M29.0526 23.75C33.9359 23.75 37.8947 19.8325 37.8947 15C37.8947 10.1675 33.9359 6.25 29.0526 6.25C24.1692 6.25 20.2104 10.1675 20.2104 15C20.2104 19.8325 24.1692 23.75 29.0526 23.75Z" fill="#00A2E5"/>
<path d="M27.7894 15C27.7894 12 26.2736 9.375 23.9999 7.875C21.7262 9.5 20.2104 12.125 20.2104 15C20.2104 17.875 21.7262 20.625 23.9999 22.125C26.2736 20.625 27.7894 18 27.7894 15Z" fill="#7375CF"/>
</svg>
