<svg width="48" height="30" viewBox="0 0 48 30" fill="none" xmlns="http://www.w3.org/2000/svg">
<path fill-rule="evenodd" clip-rule="evenodd" d="M44.2105 0H3.78947C1.64211 0 0 1.625 0 3.75V26.25C0 28.375 1.76842 30 3.78947 30H44.2105C46.3579 30 48 28.375 48 26.25V3.75C48 1.625 46.2316 0 44.2105 0Z" fill="#FFB3C7"/>
<path fill-rule="evenodd" clip-rule="evenodd" d="M44.2105 1.25C45.6 1.25 46.7369 2.375 46.7369 3.75V26.25C46.7369 27.625 45.6 28.75 44.2105 28.75H3.7895C2.40003 28.75 1.26318 27.625 1.26318 26.25V3.75C1.26318 2.375 2.40003 1.25 3.7895 1.25H44.2105Z" fill="#FFB3C7"/>
<path d="M43.0953 16.48C42.4801 16.48 41.9812 16.98 41.9812 17.595C41.9812 18.2113 42.4801 18.7113 43.0953 18.7113C43.7117 18.7113 44.2106 18.2113 44.2106 17.595C44.212 17.3008 44.0953 17.0182 43.8861 16.8091C43.677 16.6 43.3925 16.4817 43.0953 16.48ZM39.4283 15.6175C39.4283 14.7725 38.7083 14.0887 37.8191 14.0887C36.9298 14.0887 36.2098 14.7725 36.2098 15.6163C36.2098 16.46 36.9298 17.145 37.8191 17.145C38.7083 17.145 39.4283 16.46 39.4283 15.6163V15.6175ZM39.4346 12.6475H41.2106V18.585H39.4346V18.2062C38.9173 18.5607 38.303 18.7504 37.6738 18.75C35.9445 18.75 34.5437 17.3475 34.5437 15.6163C34.5437 13.8863 35.9458 12.4838 37.6738 12.4838C38.3268 12.4838 38.9319 12.6837 39.4346 13.0275V12.6475ZM25.2203 13.4213V12.6475H23.4014V18.585H25.2241V15.8138C25.2241 14.8775 26.2372 14.3763 26.9407 14.3763H26.9609V12.6488C26.2409 12.6488 25.5765 12.9575 25.2203 13.4213ZM20.6906 15.6163C20.6906 14.7725 19.9706 14.0887 19.0814 14.0887C18.1934 14.0887 17.4721 14.7725 17.4721 15.6163C17.4721 16.46 18.1921 17.145 19.0814 17.145C19.9706 17.145 20.6906 16.46 20.6906 15.6163ZM20.6969 12.6475H22.4729V18.585H20.6969V18.2062C20.1793 18.5609 19.5645 18.7507 18.9348 18.75C17.2068 18.75 15.8047 17.3475 15.8047 15.6163C15.8047 13.8863 17.2068 12.4838 18.9348 12.4838C19.5879 12.4838 20.1942 12.6837 20.6957 13.0275V12.6475H20.6969ZM31.3871 12.4875C30.6784 12.4875 30.0064 12.7087 29.558 13.3162V12.6475H27.7896V18.585H29.5795V15.465C29.5795 14.5625 30.1845 14.12 30.9121 14.12C31.6927 14.12 32.1412 14.5875 32.1412 15.4525V18.5863H33.9159V14.81C33.9159 13.4275 32.8169 12.4875 31.3871 12.4875ZM13.2191 18.5875H15.0784V10H13.2191V18.585V18.5875ZM5.05273 18.5875H7.02073V10H5.05273V18.5875ZM11.9369 10C11.9419 10.9036 11.7668 11.7993 11.4215 12.6358C11.0762 13.4723 10.5676 14.2333 9.92473 14.875L12.6456 18.5875H10.214L7.25694 14.5525L8.01989 13.98C8.64225 13.516 9.14645 12.9145 9.49229 12.2235C9.83814 11.5325 10.0161 10.7711 10.0119 10H11.9369Z" fill="#0A0B09"/>
</svg>
