<svg width="48" height="30" viewBox="0 0 48 30" fill="none" xmlns="http://www.w3.org/2000/svg">
<path opacity="0.07" d="M44.2105 0H3.78947C1.64211 0 0 1.625 0 3.75V26.25C0 28.375 1.76842 30 3.78947 30H44.2105C46.3579 30 48 28.375 48 26.25V3.75C48 1.625 46.2316 0 44.2105 0Z" fill="black"/>
<path d="M44.2105 1.25C45.6 1.25 46.7369 2.375 46.7369 3.75V26.25C46.7369 27.625 45.6 28.75 44.2105 28.75H3.7895C2.40003 28.75 1.26318 27.625 1.26318 26.25V3.75C1.26318 2.375 2.40003 1.25 3.7895 1.25H44.2105Z" fill="white"/>
<path d="M35.7475 12.625H35.3686C34.8633 13.875 34.4843 14.5 34.1054 16.375H36.5054C36.1264 14.5 36.1264 13.625 35.7475 12.625ZM39.4107 20H37.2633C37.137 20 37.137 20 37.0107 19.875L36.758 18.75L36.6317 18.5H33.6001C33.4738 18.5 33.3475 18.5 33.3475 18.75L32.9686 19.875C32.9686 20 32.8422 20 32.8422 20H30.1896L30.4422 19.375L34.1054 10.875C34.1054 10.25 34.4843 10 35.1159 10H37.0107C37.137 10 37.2633 10 37.2633 10.25L39.0317 18.375C39.158 18.875 39.2843 19.25 39.2843 19.75C39.4107 19.875 39.4107 19.875 39.4107 20ZM22.4843 19.625L22.9896 17.375C23.1159 17.375 23.2422 17.5 23.2422 17.5C24.1264 17.875 25.0107 18.125 25.8949 18C26.1475 18 26.5264 17.875 26.7791 17.75C27.4107 17.5 27.4107 16.875 26.9054 16.375C26.6528 16.125 26.2738 16 25.8949 15.75C25.3896 15.5 24.8843 15.25 24.5054 14.875C22.9896 13.625 23.4949 11.875 24.3791 11C25.137 10.5 25.5159 10 26.5264 10C28.0422 10 29.6843 10 30.4422 10.25H30.5686C30.4422 11 30.3159 11.625 30.0633 12.375C29.4317 12.125 28.8001 11.875 28.1686 11.875C27.7896 11.875 27.4107 11.875 27.0317 12C26.7791 12 26.6528 12.125 26.5264 12.25C26.2738 12.5 26.2738 12.875 26.5264 13.125L27.158 13.625C27.6633 13.875 28.1686 14.125 28.5475 14.375C29.1791 14.75 29.8107 15.375 29.937 16.125C30.1896 17.25 29.8107 18.25 28.8001 19C28.1686 19.5 27.9159 19.75 27.0317 19.75C25.2633 19.75 23.8738 19.875 22.737 19.5C22.6107 19.75 22.6107 19.75 22.4843 19.625ZM18.0633 20C18.1896 19.125 18.1896 19.125 18.3159 18.75C18.9475 16 19.5791 13.125 20.0843 10.375C20.2107 10.125 20.2107 10 20.4633 10H22.737C22.4843 11.5 22.2317 12.625 21.8528 14C21.4738 15.875 21.0949 17.75 20.5896 19.625C20.5896 19.875 20.4633 19.875 20.2107 19.875L18.0633 20ZM6.31592 10.25C6.31592 10.125 6.56855 10 6.69487 10H10.9896C11.6212 10 12.1264 10.375 12.2528 11L13.3896 16.5C13.3896 16.625 13.3896 16.625 13.5159 16.75C13.5159 16.625 13.6422 16.625 13.6422 16.625L16.2949 10.25C16.1686 10.125 16.2949 10 16.4212 10H19.0738C19.0738 10.125 19.0738 10.125 18.9475 10.25L15.0317 19.375C14.9054 19.625 14.9054 19.75 14.7791 19.875C14.6528 20 14.4001 19.875 14.1475 19.875H12.2528C12.1264 19.875 12.0001 19.875 12.0001 19.625L9.97908 11.875C9.72644 11.625 9.3475 11.25 8.84223 11.125C8.08434 10.75 6.69487 10.5 6.44223 10.5L6.31592 10.25Z" fill="#142688"/>
</svg>
