<svg width="26" height="26" viewBox="0 0 26 26" fill="none" xmlns="http://www.w3.org/2000/svg">
<path d="M7.61719 25.4922H18.3828C22.3092 25.4922 25.4922 22.3092 25.4922 18.3828V7.61719C25.4922 3.69078 22.3092 0.507812 18.3828 0.507812H7.61719C3.69078 0.507812 0.507812 3.69078 0.507812 7.61719V18.3828C0.507812 22.3092 3.69078 25.4922 7.61719 25.4922Z" fill="#E68CBE"/>
<path d="M7.61719 23.2578H18.3828C21.0752 23.2578 23.2578 21.0752 23.2578 18.3828V7.61719C23.2578 4.92482 21.0752 2.74219 18.3828 2.74219H7.61719C4.92482 2.74219 2.74219 4.92482 2.74219 7.61719V18.3828C2.74219 21.0752 4.92482 23.2578 7.61719 23.2578Z" fill="white"/>
<path d="M13 19.5C9.41015 19.5 6.5 16.5899 6.5 13C6.5 9.41015 9.41015 6.5 13 6.5C16.5899 6.5 19.5 9.41015 19.5 13C19.5 16.5899 16.5899 19.5 13 19.5Z" fill="#FF5A5A"/>
<path d="M13 17.0625C10.7563 17.0625 8.9375 15.2437 8.9375 13C8.9375 10.7563 10.7563 8.9375 13 8.9375C15.2437 8.9375 17.0625 10.7563 17.0625 13C17.0625 15.2437 15.2437 17.0625 13 17.0625Z" fill="white"/>
<path d="M6.33496 7.75684C5.54968 7.75684 4.91309 7.12024 4.91309 6.33496C4.91309 5.54968 5.54968 4.91309 6.33496 4.91309C7.12024 4.91309 7.75684 5.54968 7.75684 6.33496C7.75684 7.12024 7.12024 7.75684 6.33496 7.75684Z" fill="#FF5A5A"/>
<path d="M7.61719 26H18.3828C22.5829 26 26 22.5829 26 18.3828V7.61719C26 3.41707 22.5829 0 18.3828 0H7.61719C3.41707 0 0 3.41707 0 7.61719V18.3828C0 22.5829 3.41707 26 7.61719 26ZM18.3828 1.01562C22.0229 1.01562 24.9844 3.97709 24.9844 7.61719V18.3828C24.9844 22.0229 22.0229 24.9844 18.3828 24.9844H7.61719C3.97709 24.9844 1.01562 22.0229 1.01562 18.3828V7.61719C1.01562 3.97709 3.97709 1.01562 7.61719 1.01562H18.3828Z" fill="black"/>
<path d="M7.61719 23.7656H10.681C10.9614 23.7656 11.1888 23.5383 11.1888 23.2578C11.1888 22.9773 10.9614 22.75 10.681 22.75H7.61719C5.20914 22.75 3.25 20.7909 3.25 18.3828V7.61719C3.25 5.20914 5.20914 3.25 7.61719 3.25H18.3828C20.7909 3.25 22.75 5.20914 22.75 7.61719V18.3828C22.75 20.7909 20.7909 22.75 18.3828 22.75H15.2852C15.0047 22.75 14.7773 22.9773 14.7773 23.2578C14.7773 23.5383 15.0047 23.7656 15.2852 23.7656H18.3828C21.3509 23.7656 23.7656 21.3509 23.7656 18.3828V7.61719C23.7656 4.64907 21.3509 2.23438 18.3828 2.23438H7.61719C4.64907 2.23438 2.23438 4.64907 2.23438 7.61719V18.3828C2.23438 21.3509 4.64907 23.7656 7.61719 23.7656Z" fill="black"/>
<path d="M13 23.7656C13.1336 23.7656 13.2646 23.7113 13.359 23.6168C13.4535 23.5224 13.5078 23.3914 13.5078 23.2578C13.5078 23.1243 13.4535 22.9932 13.359 22.8988C13.2646 22.8043 13.1336 22.75 13 22.75C12.8664 22.75 12.7354 22.8043 12.641 22.8988C12.5465 22.9932 12.4922 23.1243 12.4922 23.2578C12.4922 23.3914 12.5465 23.5224 12.641 23.6168C12.7354 23.7113 12.8664 23.7656 13 23.7656Z" fill="black"/>
<path d="M17.4628 8.7821C17.5977 8.7821 17.7323 8.72868 17.8322 8.6228C18.0247 8.41881 18.0154 8.09742 17.8114 7.90495L17.7889 7.88378C17.5842 7.69208 17.2629 7.70254 17.0711 7.90719C16.8794 8.11184 16.8899 8.43323 17.0945 8.62498L17.1144 8.64362C17.2125 8.73619 17.3378 8.7821 17.4628 8.7821Z" fill="black"/>
<path d="M13 20.0078C16.8641 20.0078 20.0078 16.8641 20.0078 13C20.0078 11.7876 19.6931 10.5926 19.0978 9.54413C18.9592 9.30023 18.6493 9.21487 18.4054 9.3533C18.1615 9.49183 18.0761 9.8018 18.2146 10.0456C18.7233 10.9415 18.9922 11.9631 18.9922 13C18.9922 16.3041 16.3041 18.9922 13 18.9922C9.69592 18.9922 7.00781 16.3041 7.00781 13C7.00781 9.69592 9.69592 7.00781 13 7.00781C13.9676 7.00781 14.891 7.23115 15.7444 7.67168C15.9936 7.80025 16.2999 7.70255 16.4285 7.45337C16.5572 7.20413 16.4594 6.89782 16.2102 6.76919C15.2254 6.26087 14.1154 5.99219 13 5.99219C9.1359 5.99219 5.99219 9.1359 5.99219 13C5.99219 16.8641 9.1359 20.0078 13 20.0078Z" fill="black"/>
<path d="M13 17.5703C15.5201 17.5703 17.5703 15.5201 17.5703 13C17.5703 10.4799 15.5201 8.42969 13 8.42969C10.4799 8.42969 8.42969 10.4799 8.42969 13C8.42969 15.5201 10.4799 17.5703 13 17.5703ZM13 9.44531C14.9601 9.44531 16.5547 11.0399 16.5547 13C16.5547 14.9601 14.9601 16.5547 13 16.5547C11.0399 16.5547 9.44531 14.9601 9.44531 13C9.44531 11.0399 11.0399 9.44531 13 9.44531Z" fill="black"/>
<path d="M6.33496 8.26465C7.39898 8.26465 8.26465 7.39898 8.26465 6.33496C8.26465 5.27094 7.39898 4.40527 6.33496 4.40527C5.27094 4.40527 4.40527 5.27094 4.40527 6.33496C4.40527 7.39898 5.27094 8.26465 6.33496 8.26465ZM6.33496 5.4209C6.83896 5.4209 7.24902 5.83096 7.24902 6.33496C7.24902 6.83896 6.83896 7.24902 6.33496 7.24902C5.83096 7.24902 5.4209 6.83896 5.4209 6.33496C5.4209 5.83096 5.83096 5.4209 6.33496 5.4209Z" fill="black"/>
</svg>
