<svg width="26" height="26" viewBox="0 0 26 26" fill="none" xmlns="http://www.w3.org/2000/svg">
<path fill-rule="evenodd" clip-rule="evenodd" d="M13.0686 2.53906C18.7799 2.53906 23.4086 7.16789 23.4086 12.8792C23.4086 18.5905 18.7799 23.2191 13.0686 23.2191C11.328 23.2191 9.6286 22.7885 8.10239 21.9506L7.3851 21.5568L3.52969 22.5988L4.58083 18.8478L4.14363 18.1029C3.21132 16.514 2.7285 14.7212 2.7285 12.8792C2.7285 7.16789 7.35733 2.53906 13.0686 2.53906ZM7.12505 23.7311C8.8889 24.6995 10.9144 25.2504 13.0686 25.2504C19.9011 25.2504 25.4398 19.7117 25.4398 12.8792C25.4398 6.04654 19.9011 0.507812 13.0686 0.507812C6.23598 0.507812 0.69725 6.04654 0.69725 12.8792C0.69725 15.16 1.31516 17.2964 2.39188 19.131L0.609375 25.4922L7.12505 23.7311Z" fill="white"/>
<path fill-rule="evenodd" clip-rule="evenodd" d="M23.4086 12.8792C23.4086 7.16789 18.78 2.53906 13.0686 2.53906C7.35735 2.53906 2.72852 7.16789 2.72852 12.8792C2.72852 14.7212 3.21133 16.514 4.14384 18.1029L4.58084 18.8478L3.52971 22.5988L7.38512 21.5568L8.1026 21.9506C9.62862 22.7885 11.328 23.2191 13.0686 23.2191C18.78 23.2191 23.4086 18.5905 23.4086 12.8792ZM10.1186 12.3517C10.5837 13.1575 11.3958 14.063 12.1465 14.6442C13.0532 15.3463 14.4754 16.2686 14.9378 15.8596C15.156 15.6666 15.7565 14.7966 15.8364 14.7345C15.9166 14.6722 16.183 14.2273 16.812 14.5322C17.4408 14.8373 19.0099 15.6156 19.0099 15.6156C19.0099 15.6156 19.3499 15.7529 19.3354 16.2857C19.3211 16.8183 19.2979 16.9548 19.2979 16.9548C19.2979 16.9548 19.07 18.7815 16.5765 18.8543C15.4478 18.8873 14.1408 18.427 12.9828 17.8363C11.0061 16.8284 9.77144 15.7144 8.45113 13.9817C7.55452 12.8052 6.6589 11.2594 6.8172 9.88528C7.09193 7.50114 8.60803 7.28136 8.60803 7.28136C8.60803 7.28136 8.7453 7.26489 9.2783 7.2758C9.81111 7.28671 9.93191 7.63286 9.93191 7.63286C9.93191 7.63286 10.668 9.314 10.9428 9.9567C11.2175 10.5994 10.9208 10.8795 10.8549 10.9565C10.789 11.0334 10.3935 11.5004 10.1902 11.709C9.98686 11.9177 10.0353 12.2071 10.1186 12.3517Z" fill="#2BB140"/>
<path fill-rule="evenodd" clip-rule="evenodd" d="M10.9427 9.9564C10.6682 9.3137 9.93205 7.63276 9.93205 7.63276C9.93205 7.63276 9.81124 7.28662 9.27824 7.27571C8.74543 7.2648 8.60797 7.28126 8.60797 7.28126C8.60797 7.28126 7.09187 7.50105 6.81713 9.88519C6.65884 11.2593 7.55445 12.8049 8.45106 13.9816C9.77157 15.7143 11.0062 16.8283 12.9827 17.8362C14.1409 18.4268 15.448 18.8872 16.5767 18.8542C19.0701 18.7814 19.298 16.9547 19.298 16.9547C19.298 16.9547 19.321 16.8182 19.3355 16.2854C19.35 15.7528 19.01 15.6155 19.01 15.6155C19.01 15.6155 17.4409 14.8372 16.8119 14.5321C16.1831 14.227 15.9165 14.6721 15.8366 14.7342C15.7566 14.7965 15.156 15.6665 14.9378 15.8595C14.4756 16.2686 13.0531 15.3462 12.1464 14.6441C11.396 14.0629 10.5839 13.1574 10.1187 12.3517C10.0352 12.207 9.9868 11.9176 10.1901 11.7088C10.3934 11.5001 10.789 11.0331 10.8548 10.9564C10.9209 10.8794 11.2174 10.5993 10.9427 9.9564Z" fill="white"/>
<path d="M22.1756 3.77209C19.743 1.33975 16.5087 0 13.0687 0C10.363 0 7.77333 0.829956 5.57982 2.40041C5.3517 2.56366 5.29913 2.88084 5.46239 3.10896C5.62584 3.33708 5.94303 3.38945 6.17095 3.2262C8.19109 1.78012 10.5762 1.01562 13.0687 1.01562C19.6101 1.01562 24.932 6.33754 24.932 12.8792C24.932 19.4207 19.6101 24.7426 13.0687 24.7426C11.0759 24.7426 9.10515 24.2389 7.36946 23.286C7.25421 23.2229 7.11913 23.2068 6.99257 23.241L1.33959 24.7688L2.88088 19.2681C2.91817 19.1352 2.89972 18.993 2.8299 18.8742C1.76686 17.0627 1.2051 14.9898 1.2051 12.8792C1.2051 10.3866 1.96959 8.00142 3.41567 5.98148C3.57892 5.75356 3.52635 5.43637 3.29843 5.27312C3.07031 5.10986 2.75313 5.16223 2.58988 5.39035C1.01943 7.58366 0.18947 10.1733 0.18947 12.8792C0.18947 15.0975 0.761354 17.2777 1.84541 19.1995L0.12044 25.3551C0.0710468 25.5311 0.120241 25.7199 0.248583 25.8496C0.345385 25.947 0.47571 26 0.609407 26C0.653643 26 0.698076 25.9942 0.741915 25.9823L7.06239 24.2742C8.90262 25.2456 10.9747 25.7582 13.0685 25.7582C16.5087 25.7582 19.743 24.4186 22.1754 21.9859C24.6079 19.5536 25.9477 16.3192 25.9477 12.879C25.9477 9.43896 24.6081 6.20483 22.1756 3.77209Z" fill="black"/>
<path d="M21.3926 19.0348C21.6259 19.1906 21.9413 19.1277 22.097 18.8944C23.2872 17.1111 23.9164 15.0311 23.9164 12.879C23.9164 9.98129 22.7881 7.25696 20.7394 5.20825C18.6907 3.15955 15.9666 2.03125 13.0686 2.03125C10.1707 2.03125 7.44641 3.15955 5.3977 5.20825C3.349 7.25696 2.2207 9.98129 2.2207 12.8792C2.2207 14.8093 2.73427 16.7045 3.70586 18.36L4.03355 18.9186L3.04074 22.4618C2.99135 22.6375 3.04034 22.8264 3.16888 22.9561C3.29742 23.0858 3.48587 23.1366 3.66222 23.089L7.32005 22.1004L7.85802 22.3957C9.44453 23.2667 11.2463 23.7269 13.0684 23.7269C15.2207 23.7269 17.3007 23.0977 19.0838 21.9074C19.3171 21.7518 19.38 21.4364 19.2243 21.2032C19.0686 20.9699 18.7534 20.907 18.5201 21.0627C16.9044 22.1412 15.0194 22.7113 13.0684 22.7113C11.4167 22.7113 9.78394 22.2944 8.34679 21.5055L7.6295 21.1115C7.51445 21.0484 7.37936 21.0324 7.25261 21.0665L4.25969 21.8754L5.06981 18.9847C5.1069 18.8517 5.08865 18.7095 5.01883 18.5907L4.58163 17.8458C3.70149 16.346 3.23633 14.6286 3.23633 12.879C3.23633 7.45751 7.64716 3.04688 13.0686 3.04688C18.4901 3.04688 22.9008 7.45751 22.9008 12.8792C22.9008 14.8297 22.3307 16.7148 21.2522 18.3306C21.0964 18.5639 21.1593 18.8791 21.3926 19.0348Z" fill="black"/>
<path d="M11.2127 11.3192L11.2462 11.2801C11.7011 10.7696 11.5862 10.1699 11.4097 9.7569C11.1488 9.14693 10.4665 7.58779 10.4018 7.44021C10.301 7.18551 9.96481 6.78204 9.28859 6.76795C8.76134 6.75724 8.58797 6.77212 8.5475 6.77708C8.54333 6.77747 8.53917 6.77807 8.5352 6.77866C8.45744 6.78997 6.62853 7.08593 6.31273 9.82713C6.16753 11.0873 6.75111 12.5886 8.04723 14.2895C9.48219 16.1726 10.8013 17.294 12.752 18.2886C13.7234 18.7839 15.1423 19.3637 16.4632 19.3637C16.5061 19.3637 16.5489 19.3631 16.5914 19.3617C18.0749 19.3185 18.8672 18.7019 19.2705 18.1923C19.6985 17.6514 19.788 17.1184 19.8009 17.026C19.8094 16.9672 19.8301 16.782 19.8432 16.2994C19.8614 15.6231 19.4742 15.2681 19.2247 15.1552C19.0836 15.0852 17.6296 14.3643 17.0335 14.0753C16.631 13.8799 16.0393 13.7684 15.5067 14.3463C15.5039 14.3492 15.5014 14.3522 15.4988 14.3548C15.4268 14.4177 15.3556 14.5115 15.1391 14.8011C15.0058 14.9794 14.7398 15.3353 14.6268 15.4541C14.3879 15.471 13.5893 15.1193 12.4573 14.2427C11.7437 13.6901 10.9818 12.8298 10.5603 12.101C10.5561 12.0907 10.5536 12.0718 10.5547 12.0623C10.7295 11.8826 11.014 11.5523 11.2127 11.3192ZM11.8354 15.0457C12.1738 15.3077 12.8373 15.7959 13.4788 16.1214C13.7821 16.2752 14.7051 16.7435 15.2742 16.2398C15.4313 16.1008 15.6545 15.8078 15.9524 15.4091C16.0383 15.2942 16.1439 15.1532 16.1847 15.1044C16.2113 15.0802 16.2333 15.0564 16.2534 15.0346C16.3448 14.9354 16.3865 14.8902 16.5902 14.989C17.2019 15.2857 18.7281 16.0427 18.7829 16.0696C18.8017 16.0885 18.8311 16.1498 18.8277 16.2718C18.8164 16.6927 18.8 16.8449 18.7966 16.8734C18.7944 16.8839 18.7954 16.8776 18.7942 16.8891C18.7883 16.9236 18.7244 17.264 18.4445 17.5982C18.0497 18.07 17.4164 18.3217 16.5618 18.3465C15.4192 18.3804 14.1106 17.8414 13.2132 17.3838C11.3875 16.4527 10.2062 15.4472 8.85477 13.6738C7.73917 12.2099 7.20894 10.9197 7.32141 9.94317C7.53326 8.10453 8.54095 7.81571 8.67604 7.78516C8.72365 7.78219 8.88472 7.77544 9.26756 7.78338C9.38956 7.78596 9.44926 7.81829 9.46732 7.83793C9.49251 7.89545 10.2084 9.53077 10.4756 10.156C10.6091 10.4684 10.5272 10.5605 10.4877 10.6047C10.4806 10.6126 10.4744 10.6198 10.4691 10.6257L10.4399 10.6601C10.1465 11.0038 9.94002 11.2377 9.82616 11.3545C9.45125 11.7398 9.48676 12.273 9.67877 12.6054C10.1671 13.4516 11.0138 14.4093 11.8354 15.0457Z" fill="black"/>
<path d="M4.32085 4.63912C4.44284 4.63912 4.56523 4.59548 4.66243 4.50701C4.86992 4.31836 4.88539 3.99721 4.69675 3.78972C4.50791 3.58223 4.18695 3.56696 3.97926 3.7556L3.97907 3.7558C3.77158 3.94445 3.7565 4.2654 3.94515 4.47309C4.04532 4.58318 4.18279 4.63912 4.32085 4.63912Z" fill="black"/>
<path d="M20.0042 19.8488L20.004 19.8492C19.8154 20.0567 19.8309 20.3776 20.0384 20.5663C20.1356 20.6548 20.2578 20.6984 20.3797 20.6984C20.5178 20.6984 20.6555 20.6423 20.7557 20.532C20.9445 20.3245 20.929 20.0033 20.7215 19.8147C20.514 19.626 20.1929 19.6413 20.0042 19.8488Z" fill="black"/>
</svg>
