<svg width="28" height="28" viewBox="0 0 28 28" fill="none" xmlns="http://www.w3.org/2000/svg">
<path d="M26.8909 7.41852C26.5815 6.24209 25.6697 5.31552 24.5121 5.00106C22.4138 4.42969 16.1518 4.42969 14 4.42969C11.8482 4.42969 5.58616 4.42969 3.48791 5.00106C2.33029 5.31552 1.41854 6.24209 1.10912 7.41852C0.546875 9.5509 0.546875 14 0.546875 14C0.546875 14 0.546875 18.449 1.10912 20.5815C1.41854 21.7579 2.33029 22.6845 3.48791 22.9989C5.58616 23.5703 10.8281 23.5703 14 23.5703C17.1719 23.5703 22.4138 23.5703 24.5121 22.9989C25.6697 22.6845 26.5815 21.7579 26.8909 20.5815C27.4531 18.449 27.4531 14 27.4531 14C27.4531 14 27.4531 9.5509 26.8909 7.41852Z" fill="#FF5A5A"/>
<path d="M14.1368 4.97667C14.1363 4.97667 14.1358 4.97667 14.1353 4.97667L14.0957 4.97656C13.7941 4.97574 13.5502 4.73096 13.5503 4.42952C13.5503 4.42909 13.5503 4.42865 13.5503 4.42821C13.5511 4.12666 13.7958 3.88281 14.0972 3.88281C14.0977 3.88281 14.0981 3.88281 14.0987 3.88281L14.1383 3.88292C14.4399 3.88374 14.6838 4.12852 14.6837 4.42996C14.6837 4.4304 14.6837 4.43084 14.6837 4.43127C14.6829 4.73282 14.4381 4.97667 14.1368 4.97667Z" fill="black"/>
<path d="M14 24.1172C13.6535 24.1172 5.48838 24.1104 3.3442 23.5265C1.9985 23.161 0.939258 22.0858 0.58018 20.7205C0.0066172 18.5449 0 14.1845 0 14C0 13.8154 0.0066172 9.45501 0.580289 7.2791C0.939258 5.91415 1.9985 4.83889 3.34452 4.4733C4.76098 4.08759 8.74606 3.94989 11.8397 3.90237C12.1409 3.89974 12.3903 4.13878 12.3949 4.44076C12.3995 4.74275 12.1585 4.99136 11.8565 4.99595C7.5723 5.06185 4.65134 5.25101 3.63158 5.52872C2.66164 5.7922 1.89782 6.56958 1.63795 7.55762C1.10031 9.59681 1.09375 13.9562 1.09375 14C1.09375 14.0437 1.10031 18.4031 1.63789 20.442C1.89782 21.4304 2.66164 22.2077 3.63125 22.4711C5.63577 23.017 13.9166 23.0234 14 23.0234C14.0834 23.0234 22.3642 23.017 24.3684 22.4712C25.3384 22.2077 26.1022 21.4304 26.3621 20.4423C26.8997 18.4031 26.9062 14.0437 26.9062 13.9999C26.9062 13.9562 26.8997 9.59681 26.3621 7.5579C26.1022 6.56953 25.3384 5.79215 24.3687 5.52877C23.3709 5.25703 20.5338 5.06918 16.3797 4.99972C16.0777 4.99469 15.837 4.74576 15.842 4.44377C15.8471 4.14179 16.0978 3.90198 16.398 3.90608C19.3992 3.95623 23.2681 4.09541 24.6558 4.47336C26.0015 4.83889 27.0607 5.9141 27.4198 7.27937C27.9934 9.45501 28 13.8154 28 14C28 14.1845 27.9934 18.5449 27.4197 20.7208C27.0607 22.0858 26.0015 23.1611 24.6555 23.5266C22.5116 24.1104 14.3465 24.1172 14 24.1172Z" fill="black"/>
<path d="M11.3794 10.146L18.1606 14.0835L11.3794 18.021V10.146Z" fill="white"/>
<path d="M3.17188 18.103C2.86984 18.103 2.625 17.8582 2.625 17.5562V13.0991C2.625 12.7971 2.86984 12.5522 3.17188 12.5522C3.47391 12.5522 3.71875 12.7971 3.71875 13.0991V17.5562C3.71875 17.8582 3.47391 18.103 3.17188 18.103Z" fill="black"/>
<path d="M3.17188 11.1642C2.86984 11.1642 2.625 10.9193 2.625 10.6173V10.6108C2.625 10.3088 2.86984 10.064 3.17188 10.064C3.47391 10.064 3.71875 10.3088 3.71875 10.6108V10.6173C3.71875 10.9193 3.47391 11.1642 3.17188 11.1642Z" fill="black"/>
<path d="M11.3794 18.5674C11.2852 18.5674 11.191 18.5431 11.1066 18.4945C10.937 18.3969 10.8325 18.2162 10.8325 18.0205V10.1455C10.8325 9.94993 10.937 9.76919 11.1066 9.67157C11.2761 9.57396 11.4848 9.57434 11.654 9.67261L18.4353 13.6101C18.6038 13.708 18.7076 13.8881 18.7076 14.083C18.7076 14.278 18.6039 14.4581 18.4353 14.556L11.654 18.4935C11.5692 18.5428 11.4743 18.5674 11.3794 18.5674ZM11.9263 11.0955V17.0706L17.0715 14.083L11.9263 11.0955Z" fill="black"/>
</svg>
